<?xml version="1.0" encoding="UTF-8"?>
<!DOCTYPE svg PUBLIC "-//W3C//DTD SVG 1.1//EN" "http://www.w3.org/Graphics/SVG/1.1/DTD/svg11.dtd">
<!-- Creator: CorelDRAW 2018 (64-Bit) -->
<svg xmlns="http://www.w3.org/2000/svg" xml:space="preserve" width="52.2114mm" height="21.1143mm" version="1.1" style="shape-rendering:geometricPrecision; text-rendering:geometricPrecision; image-rendering:optimizeQuality; fill-rule:evenodd; clip-rule:evenodd"
viewBox="0 0 1803.63 729.39"
 xmlns:xlink="http://www.w3.org/1999/xlink">
 <defs>
  <style type="text/css">
   <![CDATA[
    .fil0 {fill:#414141}
    .fil1 {fill:#55B76B}
    .fil2 {fill:#2E2E2D;fill-rule:nonzero}
   ]]>
  </style>
 </defs>
 <g id="Слой_x0020_1">
  <metadata id="CorelCorpID_0Corel-Layer"/>
  <path class="fil0" d="M211.76 387.33c0,-124 -0,-262.66 -0,-386.51l0.02 0.01 -0.02 -0.11c2.22,-0.4 4.47,-0.61 6.72,-0.61 18.57,0 36.51,13.4 36.94,31.71l0.26 10.85 0 16.12c0,86.43 0,187.83 0,274.27l0 57.47 0 0c0.8,13.88 16.32,24.95 35.19,24.95 18.87,0 34.38,-11.07 35.19,-24.95l0 0 0 -352.02c0,-6.48 0.28,-10.33 3.33,-16.85 5.99,-12.8 18.97,-21.54 33.86,-21.54 2.25,0 4.5,0.2 6.72,0.61l-0.02 0.11 0.02 -0.01c0,150.27 0.07,300.57 0.07,450.74l-0.02 -0.01 0.02 0.11c-2.22,0.4 -4.47,0.61 -6.72,0.61 -10.53,0 -20.1,-4.37 -26.92,-11.46 -12.87,7.22 -28.58,11.46 -45.53,11.46 -42.79,0 -77.65,-27.01 -79.06,-60.76 -0.04,-1.4 -0.04,-2.75 -0.04,-4.17z"/>
  <path class="fil0" d="M429.3 390.98l-0.02 0 0 -0.99 -0.01 -0.15 0.01 -0.22c0,-129.53 -0.01,-259.04 -0.01,-388.56l0.02 0.01 -0.02 -0.11c2.22,-0.4 4.47,-0.61 6.72,-0.61 18.65,0 37.19,15.72 37.19,34.82 0,118.6 0.01,237.21 0.01,355.81l0 0c0.8,13.88 16.3,24.94 35.18,24.94 18.88,0 34.4,-11.06 35.2,-24.94l0 0 0 -355.99c0,-18.96 18.69,-34.64 37.19,-34.64 2.25,0 4.5,0.2 6.72,0.61l-0.02 0.11 0.02 -0.01c0,130.2 0.03,260.42 0.03,390.57l0.12 0c0.64,10.96 10.37,20.16 23.72,23.56l0 37.53c-18.11,-2.07 -34.23,-9.02 -46.2,-19.1 -14.37,11.78 -34.5,19.1 -56.79,19.1 -43.2,0 -78.31,-27.53 -79.08,-61.74z"/>
  <path class="fil0" d="M0 63.1c0,149.5 0,104.01 0,323.21 0,2.89 -0.03,5.34 0.26,8.25 3.25,32.36 37.3,57.81 78.84,57.81 42.18,0 76.64,-26.24 78.97,-59.31 0.19,-2.68 0.13,-5.3 0.13,-8l0 -120.48 -0.02 0.02 0.02 -0.11c-2.22,-0.4 -4.47,-0.61 -6.72,-0.61 -19.42,0 -35.61,14.88 -37.24,34.22l0.04 0 0 7.47 0 85.06 0 0c-0.81,13.88 -16.32,24.95 -35.19,24.95 -18.87,0 -34.38,-11.07 -35.19,-24.95l0 0c0,-216.46 0,-174.67 0,-328.9l0 0c0.81,-13.88 16.32,-24.94 35.19,-24.94 18.87,0 34.38,11.07 35.19,24.94l0 0 0 42.49 -0.04 0c1.63,19.35 17.82,34.22 37.24,34.22 2.25,0 4.5,-0.2 6.72,-0.61l0 -71.56c0,-3.99 0.03,-7.08 -0.61,-11.21 -4.84,-31.04 -38.13,-55.07 -78.5,-55.07 -42.54,0 -77.23,26.7 -79.02,60.16 -0.05,0.99 -0.09,1.94 -0.08,2.94z"/>
  <polygon class="fil1" points="285.94,499.74 371.09,499.74 611.4,499.74 611.4,558.94 317.57,558.94 163.46,729.39 163.46,722.24 163.46,628.35 163.46,558.94 0.15,558.94 0.15,499.74 163.46,499.74 222.66,499.74 222.66,558.94 222.66,562.87 279.73,499.74 "/>
  <polygon class="fil2" points="781.85,39.06 781.85,16.93 781.63,16.93 778.86,24 775.27,32.26 770.86,32.26 767.16,23.73 764.45,16.88 764.23,16.93 764.23,39.06 758.03,39.06 758.03,1.22 763.96,1.22 769.29,13.61 772.99,22.75 773.2,22.75 776.84,13.56 782.06,1.22 788.05,1.22 788.05,39.06 "/>
  <path id="1" class="fil2" d="M817.97 1.27c-1.6,5 -3.15,9.98 -4.68,14.92 -1.52,4.95 -3.1,9.92 -4.73,14.93 -0.58,1.78 -1.2,3.2 -1.85,4.27 -0.65,1.07 -1.34,1.88 -2.07,2.45 -0.73,0.56 -1.51,0.93 -2.34,1.12 -0.83,0.18 -1.74,0.29 -2.72,0.32l-3.05 0 0 -5.11 2.23 0c0.76,0 1.42,-0.2 1.98,-0.6 0.56,-0.4 1.1,-1.18 1.61,-2.34 0.07,-0.22 0.16,-0.44 0.27,-0.68 0.11,-0.24 0.2,-0.5 0.27,-0.79l-9.84 -28.49 6.41 0 3.59 11.69 2.72 8.92 0.27 0c0.29,-1.02 0.7,-2.45 1.22,-4.29 0.53,-1.85 1.08,-3.8 1.66,-5.84 0.58,-2.05 1.14,-4.02 1.69,-5.93 0.55,-1.9 0.96,-3.42 1.25,-4.54l6.09 0z"/>
  <polygon id="2" class="fil2" points="839.14,39.06 839.14,22.69 828.48,22.69 828.48,39.06 822.23,39.06 822.23,1.22 828.48,1.22 828.48,17.09 839.14,17.09 839.14,1.22 845.34,1.22 845.34,39.06 "/>
  <path id="3" class="fil2" d="M853.46 39.06l0 -37.84 6.15 0 0 25.34c0.03,0 0.06,0.01 0.08,0.03 0.02,0.02 0.04,0.03 0.08,0.03 0.83,-1.56 1.62,-3.12 2.37,-4.68 0.74,-1.56 1.5,-3.12 2.26,-4.68 1.38,-2.68 2.74,-5.35 4.08,-7.99 1.34,-2.65 2.68,-5.33 4.02,-8.05l5.77 0 0 37.84 -6.2 0 0 -24.69 -0.11 0c-0.62,1.2 -1.23,2.41 -1.85,3.64 -0.62,1.23 -1.23,2.45 -1.85,3.64l-8.92 17.4 -5.87 0z"/>
  <polygon id="4" class="fil2" points="907.36,39.06 886.21,39.06 886.21,1.22 892.46,1.22 892.46,33.3 903.01,33.3 903.01,1.22 909.21,1.22 909.21,33.35 912.69,33.35 912.69,46.89 907.36,46.89 "/>
  <path id="5" class="fil2" d="M918.36 39.06l0 -37.84 6.15 0 0 25.34c0.03,0 0.06,0.01 0.08,0.03 0.02,0.02 0.04,0.03 0.08,0.03 0.83,-1.56 1.62,-3.12 2.37,-4.68 0.74,-1.56 1.5,-3.12 2.26,-4.68 1.38,-2.68 2.74,-5.35 4.08,-7.99 1.34,-2.65 2.68,-5.33 4.02,-8.05l5.77 0 0 37.84 -6.2 0 0 -24.69 -0.11 0c-0.62,1.2 -1.23,2.41 -1.85,3.64 -0.62,1.23 -1.23,2.45 -1.85,3.64l-8.92 17.4 -5.87 0z"/>
  <polygon id="6" class="fil2" points="967.65,39.06 967.65,6.93 957.37,6.93 957.37,39.06 951.17,39.06 951.17,1.22 973.84,1.22 973.84,39.06 "/>
  <path id="7" class="fil2" d="M998.17 30.9l-10.49 0c-0.07,0.32 -0.22,0.87 -0.44,1.63 -0.22,0.76 -0.45,1.58 -0.68,2.45 -0.23,0.87 -0.45,1.68 -0.65,2.45 -0.2,0.76 -0.35,1.31 -0.46,1.63l-6.47 0 10.93 -37.84 5.98 0 10.98 37.84 -6.58 0 -2.12 -8.16zm-7.18 -13.16l-1.96 7.61 7.72 0 -1.9 -7.56c-0.07,-0.33 -0.19,-0.87 -0.36,-1.63 -0.16,-0.76 -0.34,-1.56 -0.54,-2.39 -0.2,-0.83 -0.39,-1.62 -0.57,-2.37 -0.18,-0.74 -0.29,-1.28 -0.33,-1.6l-0.27 0 -1.79 7.94z"/>
  <path id="8" class="fil2" d="M1020.75 21.01c0,3.01 -0.16,5.61 -0.46,7.8 -0.31,2.19 -0.85,4.04 -1.63,5.54 -0.78,1.51 -1.82,2.7 -3.13,3.59 -1.31,0.89 -2.94,1.53 -4.9,1.93l-1.69 -4.84c1.16,-0.47 2.13,-1.02 2.91,-1.66 0.78,-0.63 1.4,-1.44 1.88,-2.42 0.47,-0.98 0.8,-2.19 1.01,-3.64 0.2,-1.45 0.3,-3.26 0.3,-5.44l0 -20.66 20.45 0 0 37.84 -6.15 0 0 -32.08 -8.59 0 0 14.03z"/>
  <path id="9" class="fil2" d="M1067.04 27.34c0,3.85 -1.02,6.77 -3.07,8.75 -2.05,1.98 -4.85,2.97 -8.4,2.97l-11.69 0 0 -37.84 6.25 0 0 14.9 5.44 0c1.99,0 3.71,0.28 5.14,0.84 1.43,0.56 2.62,1.34 3.56,2.32 0.94,0.98 1.64,2.16 2.09,3.54 0.46,1.38 0.68,2.88 0.68,4.52zm-6.25 0.19c0,-1.74 -0.42,-3.1 -1.28,-4.08 -0.85,-0.98 -2.26,-1.47 -4.21,-1.47l-5.22 0 0 11.31 5.27 0c1.89,0 3.26,-0.53 4.13,-1.58 0.87,-1.05 1.31,-2.45 1.31,-4.19z"/>
  <polygon id="10" class="fil2" points="1089.57,39.06 1089.57,22.69 1078.91,22.69 1078.91,39.06 1072.66,39.06 1072.66,1.22 1078.91,1.22 1078.91,17.09 1089.57,17.09 1089.57,1.22 1095.77,1.22 1095.77,39.06 "/>
  <path id="11" class="fil2" d="M1126.19 27.59c0,1.81 -0.28,3.44 -0.84,4.89 -0.56,1.45 -1.36,2.69 -2.39,3.73 -1.03,1.03 -2.26,1.82 -3.67,2.36 -1.42,0.55 -2.97,0.82 -4.68,0.82 -2.07,0 -3.84,-0.34 -5.33,-1.01 -1.49,-0.67 -2.69,-1.58 -3.61,-2.72 -0.93,-1.14 -1.61,-2.46 -2.04,-3.97 -0.43,-1.5 -0.65,-3.09 -0.65,-4.76l0 -14.3c0,-1.34 0.21,-2.7 0.63,-4.08 0.41,-1.38 1.08,-2.63 2.01,-3.75 0.93,-1.12 2.12,-2.05 3.59,-2.77 1.47,-0.73 3.27,-1.09 5.41,-1.09 1.99,0 3.71,0.35 5.16,1.03 1.45,0.69 2.66,1.59 3.62,2.69 0.96,1.11 1.67,2.36 2.12,3.76 0.45,1.4 0.68,2.8 0.68,4.21l0 14.95zm-6.31 -15.05c0,-0.47 -0.08,-1.03 -0.25,-1.66 -0.16,-0.63 -0.45,-1.24 -0.84,-1.83 -0.4,-0.58 -0.93,-1.08 -1.6,-1.5 -0.67,-0.42 -1.53,-0.63 -2.58,-0.63 -1.05,0 -1.93,0.19 -2.64,0.57 -0.71,0.38 -1.27,0.85 -1.69,1.41 -0.42,0.57 -0.72,1.18 -0.9,1.83 -0.18,0.65 -0.27,1.27 -0.27,1.85l0.06 14.5c0,1.81 0.42,3.33 1.25,4.57 0.83,1.23 2.25,1.85 4.24,1.85 1.41,0 2.64,-0.48 3.67,-1.44 1.03,-0.97 1.55,-2.28 1.55,-3.95l0 -15.59z"/>
  <polygon id="12" class="fil2" points="1133.44,39.06 1133.44,1.22 1154.48,1.22 1154.48,6.98 1139.63,6.98 1139.63,17.09 1152.41,17.09 1152.41,22.75 1139.63,22.75 1139.63,33.19 1154.48,33.19 1154.48,39.06 "/>
  <path id="13" class="fil2" d="M1189.08 30.9l-10.49 0c-0.07,0.32 -0.22,0.87 -0.44,1.63 -0.22,0.76 -0.45,1.58 -0.68,2.45 -0.23,0.87 -0.45,1.68 -0.65,2.45 -0.2,0.76 -0.35,1.31 -0.46,1.63l-6.47 0 10.93 -37.84 5.98 0 10.98 37.84 -6.58 0 -2.12 -8.16zm-7.18 -13.16l-1.96 7.61 7.72 0 -1.9 -7.56c-0.07,-0.33 -0.19,-0.87 -0.36,-1.63 -0.16,-0.76 -0.34,-1.56 -0.54,-2.39 -0.2,-0.83 -0.39,-1.62 -0.57,-2.37 -0.18,-0.74 -0.29,-1.28 -0.33,-1.6l-0.27 0 -1.79 7.94z"/>
  <path id="14" class="fil2" d="M1225.85 27.86c0,3.62 -0.97,6.4 -2.91,8.32 -1.94,1.92 -4.54,2.88 -7.8,2.88l-12.18 0 0 -37.84 11.58 0c3.59,0 6.28,0.93 8.08,2.77 1.79,1.85 2.69,4.37 2.69,7.56 0,1.59 -0.34,3.06 -1.01,4.4 -0.67,1.34 -1.88,2.41 -3.62,3.21l0 0.27c0.91,0.29 1.69,0.72 2.34,1.28 0.65,0.56 1.18,1.22 1.6,1.98 0.42,0.76 0.73,1.59 0.93,2.47 0.2,0.89 0.3,1.79 0.3,2.69zm-6.63 -16.09c0,-1.52 -0.41,-2.72 -1.22,-3.59 -0.82,-0.87 -2.13,-1.31 -3.94,-1.31l-4.9 0 0 9.9 4.95 0c1.78,0 3.07,-0.46 3.89,-1.39 0.82,-0.92 1.22,-2.13 1.22,-3.61zm0.54 15.74c0,-1.6 -0.4,-2.9 -1.2,-3.88 -0.8,-0.98 -2.12,-1.48 -3.97,-1.48l-5.44 0 0 11.04 5.49 0c0.98,0 1.79,-0.15 2.45,-0.44 0.65,-0.29 1.18,-0.7 1.58,-1.23 0.4,-0.53 0.68,-1.14 0.84,-1.83 0.17,-0.69 0.25,-1.42 0.25,-2.18z"/>
  <polygon id="15" class="fil2" points="1244.14,6.87 1244.14,39.06 1237.94,39.06 1237.94,6.87 1229.62,6.87 1229.62,1.22 1252.51,1.22 1252.51,6.87 "/>
  <path id="16" class="fil2" d="M1279.83 27.59c0,1.81 -0.28,3.44 -0.84,4.89 -0.56,1.45 -1.36,2.69 -2.39,3.73 -1.03,1.03 -2.26,1.82 -3.67,2.36 -1.42,0.55 -2.97,0.82 -4.68,0.82 -2.07,0 -3.84,-0.34 -5.33,-1.01 -1.49,-0.67 -2.69,-1.58 -3.61,-2.72 -0.93,-1.14 -1.61,-2.46 -2.04,-3.97 -0.43,-1.5 -0.65,-3.09 -0.65,-4.76l0 -14.3c0,-1.34 0.21,-2.7 0.63,-4.08 0.41,-1.38 1.08,-2.63 2.01,-3.75 0.93,-1.12 2.12,-2.05 3.59,-2.77 1.47,-0.73 3.27,-1.09 5.41,-1.09 1.99,0 3.71,0.35 5.16,1.03 1.45,0.69 2.66,1.59 3.62,2.69 0.96,1.11 1.67,2.36 2.12,3.76 0.45,1.4 0.68,2.8 0.68,4.21l0 14.95zm-6.31 -15.05c0,-0.47 -0.08,-1.03 -0.25,-1.66 -0.16,-0.63 -0.45,-1.24 -0.84,-1.83 -0.4,-0.58 -0.93,-1.08 -1.6,-1.5 -0.67,-0.42 -1.53,-0.63 -2.58,-0.63 -1.05,0 -1.93,0.19 -2.64,0.57 -0.71,0.38 -1.27,0.85 -1.69,1.41 -0.42,0.57 -0.72,1.18 -0.9,1.83 -0.18,0.65 -0.27,1.27 -0.27,1.85l0.06 14.5c0,1.81 0.42,3.33 1.25,4.57 0.83,1.23 2.25,1.85 4.24,1.85 1.41,0 2.64,-0.48 3.67,-1.44 1.03,-0.97 1.55,-2.28 1.55,-3.95l0 -15.59z"/>
  <polygon id="17" class="fil2" points="1303.94,39.06 1303.94,22.69 1293.28,22.69 1293.28,39.06 1287.03,39.06 1287.03,1.22 1293.28,1.22 1293.28,17.09 1303.94,17.09 1303.94,1.22 1310.13,1.22 1310.13,39.06 "/>
  <path id="18" class="fil2" d="M1340.55 27.59c0,1.81 -0.28,3.44 -0.84,4.89 -0.56,1.45 -1.36,2.69 -2.39,3.73 -1.03,1.03 -2.26,1.82 -3.67,2.36 -1.42,0.55 -2.97,0.82 -4.68,0.82 -2.07,0 -3.84,-0.34 -5.33,-1.01 -1.49,-0.67 -2.69,-1.58 -3.61,-2.72 -0.93,-1.14 -1.61,-2.46 -2.04,-3.97 -0.43,-1.5 -0.65,-3.09 -0.65,-4.76l0 -14.3c0,-1.34 0.21,-2.7 0.63,-4.08 0.41,-1.38 1.08,-2.63 2.01,-3.75 0.93,-1.12 2.12,-2.05 3.59,-2.77 1.47,-0.73 3.27,-1.09 5.41,-1.09 1.99,0 3.71,0.35 5.16,1.03 1.45,0.69 2.66,1.59 3.62,2.69 0.96,1.11 1.67,2.36 2.12,3.76 0.45,1.4 0.68,2.8 0.68,4.21l0 14.95zm-6.31 -15.05c0,-0.47 -0.08,-1.03 -0.25,-1.66 -0.16,-0.63 -0.45,-1.24 -0.84,-1.83 -0.4,-0.58 -0.93,-1.08 -1.6,-1.5 -0.67,-0.42 -1.53,-0.63 -2.58,-0.63 -1.05,0 -1.93,0.19 -2.64,0.57 -0.71,0.38 -1.27,0.85 -1.69,1.41 -0.42,0.57 -0.72,1.18 -0.9,1.83 -0.18,0.65 -0.27,1.27 -0.27,1.85l0.06 14.5c0,1.81 0.42,3.33 1.25,4.57 0.83,1.23 2.25,1.85 4.24,1.85 1.41,0 2.64,-0.48 3.67,-1.44 1.03,-0.97 1.55,-2.28 1.55,-3.95l0 -15.59z"/>
  <polygon id="19" class="fil2" points="1371.51,39.06 1371.51,16.93 1371.29,16.93 1368.52,24 1364.93,32.26 1360.52,32.26 1356.82,23.73 1354.11,16.88 1353.89,16.93 1353.89,39.06 1347.69,39.06 1347.69,1.22 1353.62,1.22 1358.95,13.61 1362.64,22.75 1362.86,22.75 1366.5,13.56 1371.72,1.22 1377.71,1.22 1377.71,39.06 "/>
  <polygon id="20" class="fil2" points="1402.41,39.06 1402.41,22.69 1391.75,22.69 1391.75,39.06 1385.5,39.06 1385.5,1.22 1391.75,1.22 1391.75,17.09 1402.41,17.09 1402.41,1.22 1408.61,1.22 1408.61,39.06 "/>
  <path id="21" class="fil2" d="M1439.02 27.59c0,1.81 -0.28,3.44 -0.84,4.89 -0.56,1.45 -1.36,2.69 -2.39,3.73 -1.03,1.03 -2.26,1.82 -3.67,2.36 -1.42,0.55 -2.97,0.82 -4.68,0.82 -2.07,0 -3.84,-0.34 -5.33,-1.01 -1.49,-0.67 -2.69,-1.58 -3.61,-2.72 -0.93,-1.14 -1.61,-2.46 -2.04,-3.97 -0.43,-1.5 -0.65,-3.09 -0.65,-4.76l0 -14.3c0,-1.34 0.21,-2.7 0.63,-4.08 0.41,-1.38 1.08,-2.63 2.01,-3.75 0.93,-1.12 2.12,-2.05 3.59,-2.77 1.47,-0.73 3.27,-1.09 5.41,-1.09 1.99,0 3.71,0.35 5.16,1.03 1.45,0.69 2.66,1.59 3.62,2.69 0.96,1.11 1.67,2.36 2.12,3.76 0.45,1.4 0.68,2.8 0.68,4.21l0 14.95zm-6.31 -15.05c0,-0.47 -0.08,-1.03 -0.25,-1.66 -0.16,-0.63 -0.45,-1.24 -0.84,-1.83 -0.4,-0.58 -0.93,-1.08 -1.6,-1.5 -0.67,-0.42 -1.53,-0.63 -2.58,-0.63 -1.05,0 -1.93,0.19 -2.64,0.57 -0.71,0.38 -1.27,0.85 -1.69,1.41 -0.42,0.57 -0.72,1.18 -0.9,1.83 -0.18,0.65 -0.27,1.27 -0.27,1.85l0.06 14.5c0,1.81 0.42,3.33 1.25,4.57 0.83,1.23 2.25,1.85 4.24,1.85 1.41,0 2.64,-0.48 3.67,-1.44 1.03,-0.97 1.55,-2.28 1.55,-3.95l0 -15.59z"/>
  <polygon id="22" class="fil2" points="1446.27,39.06 1446.27,1.22 1467.32,1.22 1467.32,6.98 1452.47,6.98 1452.47,17.09 1465.25,17.09 1465.25,22.75 1452.47,22.75 1452.47,33.19 1467.32,33.19 1467.32,39.06 "/>
  <path id="23" class="fil2" d="M1520.35 1.27c-1.6,5 -3.15,9.98 -4.68,14.92 -1.52,4.95 -3.1,9.92 -4.73,14.93 -0.58,1.78 -1.2,3.2 -1.85,4.27 -0.65,1.07 -1.34,1.88 -2.07,2.45 -0.73,0.56 -1.51,0.93 -2.34,1.12 -0.83,0.18 -1.74,0.29 -2.72,0.32l-3.05 0 0 -5.11 2.23 0c0.76,0 1.42,-0.2 1.98,-0.6 0.56,-0.4 1.1,-1.18 1.61,-2.34 0.07,-0.22 0.16,-0.44 0.27,-0.68 0.11,-0.24 0.2,-0.5 0.27,-0.79l-9.84 -28.49 6.41 0 3.59 11.69 2.72 8.92 0.27 0c0.29,-1.02 0.7,-2.45 1.22,-4.29 0.53,-1.85 1.08,-3.8 1.66,-5.84 0.58,-2.05 1.14,-4.02 1.69,-5.93 0.55,-1.9 0.96,-3.42 1.25,-4.54l6.09 0z"/>
  <path id="24" class="fil2" d="M1531.02 1.22l0 10.73c0,2.67 0.41,4.55 1.23,5.62 0.82,1.06 2.15,1.6 3.99,1.6 0.73,0 1.57,-0.12 2.53,-0.35 0.96,-0.23 1.86,-0.61 2.69,-1.12l0 -16.47 6.2 0 0 37.84 -6.2 0 0 -15.95c-0.94,0.48 -2,0.83 -3.18,1.08 -1.18,0.23 -2.35,0.35 -3.51,0.35 -3.26,0 -5.72,-0.92 -7.39,-2.77 -1.67,-1.85 -2.5,-4.9 -2.5,-9.14l0 -11.42 6.14 0z"/>
  <path id="25" class="fil2" d="M1578.89 12.91c0,1.63 -0.24,3.15 -0.71,4.57 -0.47,1.41 -1.17,2.65 -2.09,3.7 -0.93,1.05 -2.09,1.88 -3.51,2.47 -1.41,0.6 -3.06,0.89 -4.95,0.89l-5.54 0 0 14.52 -6.2 0 0 -37.84 11.42 0c1.78,0 3.37,0.23 4.78,0.71 1.41,0.47 2.63,1.18 3.64,2.15 1.02,0.96 1.79,2.18 2.34,3.64 0.54,1.47 0.82,3.2 0.82,5.19zm-6.15 -0.13c0,-1.88 -0.45,-3.31 -1.36,-4.3 -0.91,-0.99 -2.29,-1.49 -4.14,-1.49l-5.16 0 0 11.69 5.22 0c1.85,0 3.22,-0.54 4.1,-1.6 0.89,-1.07 1.33,-2.5 1.33,-4.3z"/>
  <polygon id="26" class="fil2" points="1584.56,39.06 1584.56,1.22 1605.6,1.22 1605.6,6.98 1590.76,6.98 1590.76,17.09 1603.54,17.09 1603.54,22.75 1590.76,22.75 1590.76,33.19 1605.6,33.19 1605.6,39.06 "/>
  <path id="27" class="fil2" d="M1627.1 39.06l0 -16.42 -2.99 0c-0.18,0 -0.35,0 -0.51,0 -0.17,0 -0.34,0.03 -0.52,0.11 -1.23,0.11 -2.24,0.57 -3.02,1.39 -0.78,0.82 -1.42,2.2 -1.93,4.16l-2.67 10.77 -6.36 0 3.15 -12.34c0.47,-1.85 1.11,-3.38 1.93,-4.59 0.82,-1.22 1.97,-2.08 3.45,-2.58l0 -0.05c-1.12,-0.44 -2.13,-1.25 -3.02,-2.45 -0.89,-1.2 -1.55,-2.72 -1.98,-4.57 -0.51,-1.85 -1,-3.7 -1.47,-5.54 -0.47,-1.85 -0.94,-3.72 -1.41,-5.6l5.92 0 2.77 10.44c0.29,1.12 0.66,2.04 1.12,2.74 0.45,0.71 0.94,1.25 1.47,1.63 0.53,0.38 1.08,0.64 1.66,0.79 0.58,0.15 1.14,0.22 1.69,0.22l2.72 0 0 -15.93 6.25 0 0 15.93 2.61 0c0.62,0 1.23,-0.07 1.82,-0.22 0.6,-0.15 1.16,-0.41 1.69,-0.79 0.53,-0.38 1.01,-0.93 1.44,-1.63 0.44,-0.7 0.8,-1.62 1.09,-2.74 0.18,-0.58 0.4,-1.34 0.65,-2.29 0.26,-0.94 0.51,-1.92 0.76,-2.94 0.25,-1.01 0.5,-1.98 0.73,-2.91 0.23,-0.92 0.45,-1.69 0.63,-2.31l5.93 0c-0.47,1.89 -0.95,3.76 -1.44,5.6 -0.49,1.85 -0.97,3.7 -1.44,5.54 -0.76,3.08 -2.05,5.19 -3.86,6.31 -0.44,0.4 -0.82,0.64 -1.14,0.71 1.49,0.51 2.64,1.37 3.45,2.61 0.82,1.23 1.46,2.77 1.93,4.62l3.15 12.34 -6.36 0c-0.44,-1.81 -0.87,-3.61 -1.31,-5.38 -0.43,-1.78 -0.89,-3.57 -1.36,-5.39 -0.29,-1.12 -0.64,-2.05 -1.03,-2.77 -0.4,-0.73 -0.85,-1.31 -1.36,-1.74 -0.5,-0.44 -1.06,-0.73 -1.66,-0.9 -0.6,-0.16 -1.24,-0.24 -1.93,-0.24l-2.99 0 0 16.42 -6.25 0z"/>
  <path id="28" class="fil2" d="M1659.8 46.84l-5.39 0 0 -12.89c0.47,-0.07 0.93,-0.15 1.36,-0.24 0.44,-0.09 0.89,-0.19 1.36,-0.3 0.8,-0.69 1.42,-1.49 1.88,-2.39 0.46,-0.91 0.82,-2.02 1.09,-3.34 0.27,-1.32 0.46,-2.88 0.57,-4.67 0.11,-1.8 0.2,-3.91 0.27,-6.34l0.55 -15.44 20.88 0c0,5.4 0.01,10.78 0.03,16.15 0.02,5.36 0.02,10.75 0.02,16.15l2.99 0 0 13.32 -5.38 0 0 -7.78 -20.23 0 0 7.78zm16.47 -13.32l0 -26.64 -9.35 0 -0.44 11.37c-0.07,1.63 -0.15,3.21 -0.22,4.73 -0.07,1.52 -0.19,2.94 -0.36,4.24 -0.16,1.3 -0.39,2.49 -0.68,3.56 -0.29,1.07 -0.69,1.98 -1.2,2.75l12.24 0z"/>
  <polygon id="29" class="fil2" points="1691.52,39.06 1691.52,1.22 1712.56,1.22 1712.56,6.98 1697.71,6.98 1697.71,17.09 1710.49,17.09 1710.49,22.75 1697.71,22.75 1697.71,33.19 1712.56,33.19 1712.56,39.06 "/>
  <polygon id="30" class="fil2" points="1735.47,39.06 1735.47,22.69 1724.81,22.69 1724.81,39.06 1718.56,39.06 1718.56,1.22 1724.81,1.22 1724.81,17.09 1735.47,17.09 1735.47,1.22 1741.66,1.22 1741.66,39.06 "/>
  <path id="31" class="fil2" d="M1749.79 39.06l0 -37.84 6.15 0 0 25.34c0.03,0 0.06,0.01 0.08,0.03 0.02,0.02 0.04,0.03 0.08,0.03 0.83,-1.56 1.62,-3.12 2.37,-4.68 0.74,-1.56 1.5,-3.12 2.26,-4.68 1.38,-2.68 2.74,-5.35 4.08,-7.99 1.34,-2.65 2.68,-5.33 4.02,-8.05l5.77 0 0 37.84 -6.2 0 0 -24.69 -0.11 0c-0.62,1.2 -1.23,2.41 -1.85,3.64 -0.62,1.23 -1.23,2.45 -1.85,3.64l-8.92 17.4 -5.87 0z"/>
  <polygon id="32" class="fil2" points="1782.59,39.06 1782.59,1.22 1803.63,1.22 1803.63,6.98 1788.79,6.98 1788.79,17.09 1801.57,17.09 1801.57,22.75 1788.79,22.75 1788.79,33.19 1803.63,33.19 1803.63,39.06 "/>
  <path class="fil2" d="M811.94 164.89c-1.63,6.97 -5.07,12.4 -10.33,16.27 -5.26,3.87 -11.62,5.8 -19.08,5.8 -5.16,0 -9.66,-0.81 -13.48,-2.44 -3.82,-1.62 -7.03,-3.87 -9.61,-6.74 -2.58,-2.87 -4.49,-6.24 -5.74,-10.1 -1.24,-3.87 -1.86,-8.05 -1.86,-12.54l0 -38.69c0,-3.92 0.62,-7.74 1.86,-11.47 1.25,-3.72 3.13,-7.02 5.67,-9.89 2.53,-2.87 5.71,-5.16 9.54,-6.88 3.82,-1.72 8.36,-2.58 13.62,-2.58 8.03,0 14.56,2.1 19.58,6.3 5.02,4.2 8.34,9.46 9.97,15.77l-15.63 5.16c-0.29,-1.43 -0.77,-2.82 -1.43,-4.16 -0.67,-1.34 -1.58,-2.56 -2.73,-3.65 -1.15,-1.1 -2.54,-1.98 -4.16,-2.65 -1.63,-0.67 -3.49,-1.01 -5.59,-1.01 -2.48,0 -4.62,0.43 -6.38,1.29 -1.77,0.86 -3.23,1.98 -4.38,3.37 -1.15,1.39 -2.01,2.94 -2.58,4.66 -0.57,1.72 -0.86,3.44 -0.86,5.16l0 39.7c0,2.1 0.29,4.11 0.86,6.02 0.57,1.91 1.46,3.58 2.66,5.02 1.2,1.43 2.68,2.56 4.45,3.37 1.77,0.81 3.85,1.22 6.24,1.22 3.54,0 6.55,-1.01 9.04,-3.01 2.48,-2 4.07,-4.77 4.73,-8.31l15.63 5.02z"/>
  <polygon id="1" class="fil2" points="824.71,186.1 824.71,86.36 880.21,86.36 880.21,101.55 841.06,101.55 841.06,128.2 874.76,128.2 874.76,143.11 841.06,143.11 841.06,170.62 880.21,170.62 880.21,186.1 "/>
  <path id="2" class="fil2" d="M952.93 156.58c0,9.56 -2.56,16.86 -7.68,21.93 -5.11,5.06 -11.98,7.6 -20.58,7.6l-32.13 0 0 -99.74 30.55 0c9.47,0 16.56,2.44 21.3,7.31 4.73,4.87 7.1,11.51 7.1,19.92 0,4.2 -0.88,8.07 -2.65,11.61 -1.77,3.53 -4.95,6.35 -9.54,8.45l0 0.72c2.39,0.76 4.45,1.89 6.17,3.37 1.72,1.48 3.13,3.22 4.23,5.23 1.1,2.01 1.91,4.18 2.44,6.52 0.53,2.34 0.79,4.71 0.79,7.09zm-17.5 -42.42c0,-4.01 -1.08,-7.17 -3.23,-9.46 -2.15,-2.29 -5.62,-3.44 -10.4,-3.44l-12.91 0 0 26.08 13.05 0c4.68,0 8.1,-1.22 10.26,-3.65 2.15,-2.44 3.23,-5.61 3.23,-9.53zm1.43 41.48c0,-4.22 -1.05,-7.64 -3.15,-10.22 -2.1,-2.6 -5.59,-3.89 -10.47,-3.89l-14.34 0 0 29.09 14.49 0c2.58,0 4.73,-0.38 6.45,-1.15 1.72,-0.77 3.11,-1.87 4.16,-3.25 1.05,-1.39 1.79,-3.01 2.22,-4.82 0.43,-1.82 0.64,-3.75 0.64,-5.76z"/>
  <polygon id="3" class="fil2" points="967.7,186.1 967.7,86.36 1023.21,86.36 1023.21,101.55 984.05,101.55 984.05,128.2 1017.76,128.2 1017.76,143.11 984.05,143.11 984.05,170.62 1023.21,170.62 1023.21,186.1 "/>
  <path id="4" class="fil2" d="M1096.21 117.17c0,4.3 -0.63,8.31 -1.87,12.04 -1.24,3.73 -3.08,6.97 -5.52,9.75 -2.44,2.77 -5.52,4.95 -9.25,6.52 -3.73,1.58 -8.08,2.37 -13.05,2.37l-14.63 0 0 38.26 -16.35 0 0 -99.74 30.12 0c4.69,0 8.89,0.62 12.62,1.87 3.73,1.24 6.93,3.13 9.61,5.66 2.67,2.53 4.73,5.73 6.16,9.6 1.43,3.87 2.16,8.43 2.16,13.69zm-16.21 -0.36c0,-4.94 -1.2,-8.72 -3.59,-11.34 -2.39,-2.6 -6.03,-3.92 -10.9,-3.92l-13.62 0 0 30.81 13.77 0c4.88,0 8.49,-1.41 10.83,-4.2 2.34,-2.82 3.51,-6.59 3.51,-11.34z"/>
  <path id="5" class="fil2" d="M1166.06 155.86c0,4.77 -0.74,9.07 -2.22,12.9 -1.48,3.82 -3.59,7.1 -6.31,9.82 -2.72,2.72 -5.95,4.8 -9.68,6.24 -3.73,1.43 -7.84,2.15 -12.34,2.15 -5.45,0 -10.13,-0.88 -14.05,-2.65 -3.92,-1.77 -7.1,-4.16 -9.54,-7.16 -2.44,-3.01 -4.23,-6.49 -5.38,-10.46 -1.15,-3.97 -1.72,-8.15 -1.72,-12.54l0 -37.69c0,-3.53 0.55,-7.12 1.65,-10.75 1.1,-3.63 2.87,-6.93 5.31,-9.89 2.44,-2.96 5.6,-5.4 9.47,-7.31 3.87,-1.91 8.63,-2.87 14.27,-2.87 5.26,0 9.8,0.91 13.62,2.72 3.82,1.82 7.01,4.18 9.54,7.1 2.53,2.91 4.4,6.21 5.59,9.89 1.2,3.68 1.79,7.38 1.79,11.11l0 39.41zm-16.64 -39.67c0,-1.24 -0.21,-2.7 -0.65,-4.37 -0.43,-1.67 -1.17,-3.27 -2.22,-4.83 -1.05,-1.53 -2.46,-2.84 -4.23,-3.94 -1.77,-1.1 -4.04,-1.65 -6.82,-1.65 -2.77,0 -5.09,0.5 -6.96,1.51 -1.86,1 -3.34,2.25 -4.45,3.73 -1.1,1.5 -1.89,3.1 -2.36,4.82 -0.48,1.72 -0.72,3.34 -0.72,4.87l0.15 38.21c0,4.78 1.1,8.79 3.3,12.06 2.2,3.25 5.93,4.87 11.19,4.87 3.73,0 6.96,-1.27 9.68,-3.8 2.73,-2.56 4.09,-6.02 4.09,-10.41l0 -41.08z"/>
  <path id="6" class="fil2" d="M1188.72 206.59l-14.2 0 0 -33.96c1.24,-0.19 2.44,-0.4 3.58,-0.64 1.15,-0.24 2.35,-0.5 3.59,-0.79 2.1,-1.82 3.76,-3.92 4.95,-6.31 1.2,-2.39 2.16,-5.33 2.87,-8.81 0.72,-3.49 1.22,-7.6 1.51,-12.33 0.29,-4.73 0.53,-10.29 0.72,-16.7l1.43 -40.7 55.07 0c0,14.24 0.02,28.42 0.07,42.56 0.05,14.14 0.07,28.33 0.07,42.57l7.89 0 0 35.11 -14.2 0 0 -20.49 -53.35 0 0 20.49zm43.46 -35.11l0 -70.22 -24.67 0 -1.15 29.95c-0.19,4.3 -0.38,8.46 -0.57,12.47 -0.19,4.01 -0.5,7.74 -0.93,11.18 -0.43,3.44 -1.03,6.57 -1.8,9.39 -0.76,2.82 -1.81,5.23 -3.15,7.24l32.27 0z"/>
  <path id="7" class="fil2" d="M1329.14 156.58c0,9.56 -2.56,16.86 -7.68,21.93 -5.11,5.06 -11.98,7.6 -20.58,7.6l-32.13 0 0 -99.74 30.55 0c9.47,0 16.56,2.44 21.3,7.31 4.73,4.87 7.1,11.51 7.1,19.92 0,4.2 -0.89,8.07 -2.66,11.61 -1.77,3.53 -4.95,6.35 -9.53,8.45l0 0.72c2.39,0.76 4.45,1.89 6.17,3.37 1.72,1.48 3.13,3.22 4.23,5.23 1.1,2.01 1.91,4.18 2.44,6.52 0.53,2.34 0.79,4.71 0.79,7.09zm-17.5 -42.42c0,-4.01 -1.08,-7.17 -3.23,-9.46 -2.15,-2.29 -5.62,-3.44 -10.4,-3.44l-12.91 0 0 26.08 13.05 0c4.68,0 8.1,-1.22 10.25,-3.65 2.15,-2.44 3.23,-5.61 3.23,-9.53zm1.43 41.48c0,-4.22 -1.05,-7.64 -3.15,-10.22 -2.1,-2.6 -5.59,-3.89 -10.47,-3.89l-14.34 0 0 29.09 14.49 0c2.58,0 4.73,-0.38 6.45,-1.15 1.72,-0.77 3.11,-1.87 4.16,-3.25 1.05,-1.39 1.79,-3.01 2.22,-4.82 0.43,-1.82 0.64,-3.75 0.64,-5.76z"/>
  <path id="8" class="fil2" d="M1343.63 186.1l0 -99.74 16.2 0 0 66.78c0.1,0 0.17,0.02 0.22,0.07 0.04,0.05 0.12,0.07 0.21,0.07 2.2,-4.11 4.28,-8.22 6.24,-12.33 1.96,-4.11 3.95,-8.21 5.96,-12.32 3.63,-7.07 7.22,-14.09 10.75,-21.07 3.54,-6.97 7.08,-14.04 10.62,-21.21l15.2 0 0 99.74 -16.35 0 0 -65.06 -0.29 0c-1.62,3.15 -3.25,6.35 -4.87,9.6 -1.62,3.25 -3.25,6.45 -4.87,9.6l-23.53 45.86 -15.49 0z"/>
  <polygon id="9" class="fil2" points="1470.99,186.1 1470.99,142.96 1442.88,142.96 1442.88,186.1 1426.38,186.1 1426.38,86.36 1442.88,86.36 1442.88,128.2 1470.99,128.2 1470.99,86.36 1487.34,86.36 1487.34,186.1 "/>
  <path id="10" class="fil2" d="M1563.22 164.89c-1.63,6.97 -5.07,12.4 -10.33,16.27 -5.26,3.87 -11.62,5.8 -19.07,5.8 -5.17,0 -9.66,-0.81 -13.49,-2.44 -3.82,-1.62 -7.03,-3.87 -9.61,-6.74 -2.58,-2.87 -4.49,-6.24 -5.73,-10.1 -1.24,-3.87 -1.87,-8.05 -1.87,-12.54l0 -38.69c0,-3.92 0.62,-7.74 1.87,-11.47 1.24,-3.72 3.13,-7.02 5.67,-9.89 2.54,-2.87 5.71,-5.16 9.54,-6.88 3.82,-1.72 8.36,-2.58 13.63,-2.58 8.03,0 14.55,2.1 19.57,6.3 5.02,4.2 8.34,9.46 9.97,15.77l-15.63 5.16c-0.29,-1.43 -0.77,-2.82 -1.43,-4.16 -0.67,-1.34 -1.58,-2.56 -2.73,-3.65 -1.15,-1.1 -2.54,-1.98 -4.16,-2.65 -1.62,-0.67 -3.49,-1.01 -5.59,-1.01 -2.49,0 -4.62,0.43 -6.38,1.29 -1.77,0.86 -3.23,1.98 -4.38,3.37 -1.15,1.39 -2.01,2.94 -2.58,4.66 -0.57,1.72 -0.86,3.44 -0.86,5.16l0 39.7c0,2.1 0.29,4.11 0.86,6.02 0.58,1.91 1.46,3.58 2.66,5.02 1.2,1.43 2.68,2.56 4.45,3.37 1.77,0.81 3.85,1.22 6.24,1.22 3.53,0 6.55,-1.01 9.03,-3.01 2.48,-2 4.07,-4.77 4.73,-8.31l15.63 5.02z"/>
  <path id="11" class="fil2" d="M1575.7 186.1l0 -99.74 16.49 0 0 41.85 7.89 0c1.43,0 2.92,-0.19 4.45,-0.57 1.53,-0.38 2.99,-1.07 4.37,-2.08 1.39,-1.01 2.68,-2.44 3.87,-4.3 1.2,-1.86 2.18,-4.28 2.94,-7.24l7.32 -27.37 15.78 0 -7.74 29.38c-1.24,4.87 -3.01,8.91 -5.31,12.11 -2.3,3.2 -4.97,5.33 -8.03,6.38 4.01,1.34 7.12,3.61 9.32,6.81 2.2,3.2 3.87,7.29 5.02,12.25l8.32 32.53 -16.78 0 -7.03 -28.38c-1.53,-6.02 -3.63,-10.01 -6.31,-11.97 -2.67,-1.96 -5.83,-2.94 -9.47,-2.94l-8.61 0 0 43.28 -16.49 0z"/>
  <path id="12" class="fil2" d="M1651 186.1l0 -99.74 16.2 0 0 66.78c0.1,0 0.17,0.02 0.22,0.07 0.04,0.05 0.12,0.07 0.21,0.07 2.2,-4.11 4.28,-8.22 6.24,-12.33 1.96,-4.11 3.95,-8.21 5.95,-12.32 3.63,-7.07 7.22,-14.09 10.76,-21.07 3.54,-6.97 7.07,-14.04 10.61,-21.21l15.21 0 0 99.74 -16.35 0 0 -65.06 -0.29 0c-1.63,3.15 -3.25,6.35 -4.87,9.6 -1.63,3.25 -3.25,6.45 -4.87,9.6l-23.53 45.86 -15.49 0z"/>
  <path id="13" class="fil2" d="M1733.61 186.1l0 -99.74 16.2 0 0 66.78c0.1,0 0.17,0.02 0.22,0.07 0.04,0.05 0.12,0.07 0.21,0.07 2.2,-4.11 4.28,-8.22 6.24,-12.33 1.96,-4.11 3.95,-8.21 5.95,-12.32 3.63,-7.07 7.22,-14.09 10.76,-21.07 3.54,-6.97 7.07,-14.04 10.61,-21.21l15.21 0 0 99.74 -16.35 0 0 -65.06 -0.29 0c-1.62,3.15 -3.25,6.35 -4.87,9.6 -1.63,3.25 -3.25,6.45 -4.87,9.6l-23.53 45.86 -15.49 0zm32.99 -106.05c-4.01,0 -7.39,-0.72 -10.11,-2.15 -2.73,-1.43 -4.93,-3.2 -6.6,-5.3 -1.67,-2.1 -2.89,-4.39 -3.66,-6.88 -0.76,-2.48 -1.19,-4.78 -1.29,-6.88l12.34 0c0.09,1.05 0.36,2.13 0.79,3.23 0.43,1.1 1.05,2.12 1.86,3.08 0.82,0.95 1.77,1.74 2.87,2.36 1.1,0.62 2.37,0.93 3.8,0.93 1.53,0 2.87,-0.31 4.02,-0.93 1.15,-0.62 2.1,-1.41 2.87,-2.36 0.77,-0.96 1.34,-1.98 1.72,-3.08 0.38,-1.1 0.57,-2.17 0.57,-3.23l12.19 0c-0.19,2.1 -0.69,4.4 -1.5,6.88 -0.81,2.48 -2.03,4.77 -3.66,6.88 -1.62,2.1 -3.78,3.87 -6.46,5.3 -2.67,1.43 -5.93,2.15 -9.75,2.15z"/>
  <path id="14" class="fil2" d="M753.85 320.22l0 -99.74 16.2 0 0 66.78c0.1,0 0.17,0.02 0.22,0.07 0.04,0.05 0.12,0.07 0.21,0.07 2.2,-4.11 4.28,-8.22 6.24,-12.33 1.96,-4.11 3.95,-8.21 5.96,-12.32 3.63,-7.07 7.22,-14.09 10.75,-21.07 3.54,-6.97 7.08,-14.04 10.62,-21.21l15.2 0 0 99.74 -16.35 0 0 -65.06 -0.29 0c-1.62,3.15 -3.25,6.35 -4.87,9.6 -1.62,3.25 -3.25,6.45 -4.87,9.6l-23.53 45.86 -15.49 0z"/>
  <path id="15" class="fil2" d="M830.87 297.86c0.86,-0.29 1.99,-0.64 3.37,-1.07 1.39,-0.43 2.84,-0.91 4.37,-1.43 1.53,-0.53 2.99,-1.03 4.37,-1.5 1.39,-0.48 2.51,-0.86 3.37,-1.15 0.76,4.11 2.54,7.29 5.31,9.53 2.77,2.25 6.07,3.37 9.9,3.37 4.3,0 7.68,-1.39 10.11,-4.14 2.44,-2.77 3.66,-6.47 3.66,-11.13 0,-2.1 -0.21,-4.03 -0.65,-5.85 -0.43,-1.79 -1.17,-3.39 -2.22,-4.77 -1.05,-1.39 -2.44,-2.46 -4.16,-3.27 -1.72,-0.81 -3.87,-1.22 -6.45,-1.22l-7.74 0 0 -13.9 7.89 0c4.01,0 7.17,-1.2 9.47,-3.61 2.3,-2.39 3.44,-5.85 3.44,-10.37 0,-3.65 -1.1,-6.62 -3.3,-8.86 -2.2,-2.27 -5.31,-3.39 -9.32,-3.39 -3.92,0 -7.15,1.15 -9.68,3.44 -2.53,2.29 -4.28,5.25 -5.24,8.88l-15.05 -5.45c1.62,-6.85 5.04,-12.3 10.25,-16.31 5.21,-4.04 11.88,-6.04 20.01,-6.04 9.28,0 16.4,2.24 21.37,6.73 4.97,4.49 7.46,11.08 7.46,19.78 0,1.62 -0.17,3.49 -0.5,5.59 -0.34,2.1 -0.91,4.18 -1.72,6.24 -0.81,2.05 -1.96,3.97 -3.44,5.73 -1.49,1.77 -3.37,3.13 -5.67,4.08l0 0.57c2.39,0.96 4.37,2.27 5.96,3.94 1.58,1.67 2.84,3.56 3.8,5.66 0.96,2.1 1.6,4.28 1.94,6.52 0.34,2.25 0.5,4.42 0.5,6.52 0,4.97 -0.74,9.32 -2.22,13.04 -1.48,3.73 -3.59,6.86 -6.31,9.39 -2.73,2.53 -5.98,4.44 -9.75,5.73 -3.78,1.29 -7.96,1.93 -12.55,1.93 -8.22,0 -15.04,-2.03 -20.44,-6.07 -5.4,-4.06 -8.77,-9.77 -10.11,-17.15z"/>
  <path id="16" class="fil2" d="M914.06 340.71l-14.2 0 0 -33.96c1.24,-0.19 2.44,-0.4 3.59,-0.64 1.15,-0.24 2.34,-0.5 3.59,-0.79 2.1,-1.82 3.76,-3.92 4.95,-6.31 1.2,-2.39 2.15,-5.33 2.87,-8.81 0.72,-3.49 1.22,-7.6 1.51,-12.33 0.29,-4.73 0.53,-10.29 0.72,-16.7l1.43 -40.7 55.08 0c0,14.24 0.02,28.42 0.07,42.56 0.05,14.14 0.07,28.33 0.07,42.57l7.89 0 0 35.11 -14.2 0 0 -20.49 -53.35 0 0 20.49zm43.46 -35.11l0 -70.22 -24.67 0 -1.15 29.95c-0.19,4.3 -0.38,8.46 -0.57,12.47 -0.2,4.01 -0.51,7.74 -0.94,11.18 -0.43,3.44 -1.03,6.57 -1.79,9.39 -0.76,2.82 -1.82,5.23 -3.15,7.24l32.27 0z"/>
  <path id="17" class="fil2" d="M1036.55 298.72l-27.68 0c-0.19,0.86 -0.57,2.29 -1.15,4.3 -0.57,2.01 -1.17,4.16 -1.79,6.45 -0.63,2.29 -1.2,4.44 -1.72,6.45 -0.53,2.01 -0.93,3.44 -1.22,4.3l-17.07 0 28.83 -99.74 15.78 0 28.97 99.74 -17.36 0 -5.59 -21.5zm-18.93 -34.68l-5.16 20.06 20.37 0 -5.02 -19.92c-0.19,-0.86 -0.5,-2.29 -0.93,-4.3 -0.43,-2.01 -0.91,-4.11 -1.44,-6.31 -0.53,-2.2 -1.03,-4.27 -1.51,-6.23 -0.48,-1.96 -0.76,-3.37 -0.86,-4.23l-0.72 0 -4.74 20.92z"/>
  <polygon id="18" class="fil2" points="1096.5,235.38 1096.5,320.22 1080.15,320.22 1080.15,235.38 1058.2,235.38 1058.2,220.48 1118.59,220.48 1118.59,235.38 "/>
  <polygon id="19" class="fil2" points="1128.48,320.22 1128.48,220.48 1183.99,220.48 1183.99,235.67 1144.83,235.67 1144.83,262.32 1178.54,262.32 1178.54,277.23 1144.83,277.23 1144.83,304.74 1183.99,304.74 1183.99,320.22 "/>
  <path id="20" class="fil2" d="M1219.27 272.64c0,7.93 -0.4,14.79 -1.22,20.56 -0.82,5.78 -2.25,10.65 -4.3,14.62 -2.06,3.96 -4.81,7.12 -8.25,9.46 -3.44,2.34 -7.75,4.03 -12.91,5.08l-4.45 -12.75c3.06,-1.24 5.62,-2.7 7.67,-4.37 2.06,-1.67 3.71,-3.8 4.95,-6.38 1.24,-2.58 2.12,-5.78 2.65,-9.6 0.53,-3.82 0.79,-8.6 0.79,-14.33l0 -54.46 53.93 0 0 99.74 -16.21 0 0 -84.55 -22.66 0 0 36.97z"/>
  <path id="21" class="fil2" d="M1337.75 289.34c0,10.15 -2.7,17.84 -8.1,23.05 -5.4,5.23 -12.79,7.83 -22.16,7.83l-30.84 0 0 -99.74 16.5 0 0 39.27 14.34 0c5.26,0 9.78,0.74 13.56,2.22 3.78,1.48 6.91,3.54 9.39,6.11 2.49,2.58 4.33,5.69 5.52,9.34 1.2,3.63 1.79,7.6 1.79,11.92zm-16.5 0.5c0,-4.58 -1.12,-8.17 -3.37,-10.75 -2.25,-2.58 -5.95,-3.87 -11.11,-3.87l-13.77 0 0 29.81 13.91 0c4.97,0 8.61,-1.39 10.9,-4.16 2.3,-2.77 3.44,-6.45 3.44,-11.04z"/>
  <path id="22" class="fil2" d="M1406.88 299.01c-1.63,6.97 -5.07,12.4 -10.33,16.27 -5.26,3.87 -11.61,5.8 -19.07,5.8 -5.17,0 -9.66,-0.81 -13.49,-2.44 -3.82,-1.62 -7.03,-3.87 -9.61,-6.74 -2.58,-2.87 -4.49,-6.24 -5.73,-10.1 -1.24,-3.87 -1.87,-8.05 -1.87,-12.54l0 -38.69c0,-3.92 0.62,-7.74 1.87,-11.47 1.24,-3.72 3.13,-7.02 5.67,-9.89 2.54,-2.87 5.71,-5.16 9.54,-6.88 3.82,-1.72 8.36,-2.58 13.63,-2.58 8.03,0 14.55,2.1 19.57,6.3 5.02,4.2 8.35,9.46 9.97,15.77l-15.63 5.16c-0.29,-1.43 -0.77,-2.82 -1.43,-4.16 -0.67,-1.34 -1.58,-2.56 -2.73,-3.65 -1.15,-1.1 -2.54,-1.98 -4.16,-2.65 -1.62,-0.67 -3.49,-1.01 -5.59,-1.01 -2.49,0 -4.62,0.43 -6.38,1.29 -1.77,0.86 -3.23,1.98 -4.38,3.37 -1.15,1.39 -2.01,2.94 -2.58,4.66 -0.57,1.72 -0.86,3.44 -0.86,5.16l0 39.7c0,2.1 0.29,4.11 0.86,6.02 0.57,1.91 1.46,3.58 2.65,5.02 1.2,1.43 2.68,2.56 4.45,3.37 1.77,0.81 3.85,1.22 6.24,1.22 3.54,0 6.55,-1.01 9.03,-3.01 2.49,-2 4.07,-4.77 4.73,-8.31l15.63 5.02z"/>
  <path id="23" class="fil2" d="M1419.36 320.22l0 -99.74 16.49 0 0 41.85 7.89 0c1.43,0 2.92,-0.19 4.45,-0.57 1.53,-0.38 2.99,-1.07 4.37,-2.08 1.39,-1.01 2.68,-2.44 3.87,-4.3 1.2,-1.86 2.18,-4.28 2.94,-7.24l7.31 -27.37 15.78 0 -7.74 29.38c-1.24,4.87 -3.01,8.91 -5.31,12.11 -2.3,3.2 -4.97,5.33 -8.03,6.38 4.01,1.34 7.12,3.61 9.32,6.81 2.2,3.2 3.87,7.29 5.02,12.25l8.32 32.53 -16.78 0 -7.03 -28.38c-1.53,-6.02 -3.63,-10.01 -6.31,-11.97 -2.67,-1.96 -5.83,-2.94 -9.47,-2.94l-8.61 0 0 43.28 -16.49 0z"/>
  <path id="24" class="fil2" d="M1494.66 320.22l0 -99.74 16.2 0 0 66.78c0.1,0 0.17,0.02 0.22,0.07 0.04,0.05 0.12,0.07 0.21,0.07 2.2,-4.11 4.28,-8.22 6.24,-12.33 1.96,-4.11 3.95,-8.21 5.95,-12.32 3.63,-7.07 7.22,-14.09 10.76,-21.07 3.54,-6.97 7.07,-14.04 10.61,-21.21l15.21 0 0 99.74 -16.35 0 0 -65.06 -0.29 0c-1.62,3.15 -3.25,6.35 -4.87,9.6 -1.63,3.25 -3.25,6.45 -4.87,9.6l-23.53 45.86 -15.49 0z"/>
  <path id="25" class="fil2" d="M1577.27 320.22l0 -99.74 16.2 0 0 66.78c0.1,0 0.17,0.02 0.22,0.07 0.04,0.05 0.12,0.07 0.21,0.07 2.2,-4.11 4.28,-8.22 6.24,-12.33 1.96,-4.11 3.95,-8.21 5.95,-12.32 3.63,-7.07 7.22,-14.09 10.76,-21.07 3.54,-6.97 7.07,-14.04 10.61,-21.21l15.21 0 0 99.74 -16.35 0 0 -65.06 -0.29 0c-1.62,3.15 -3.25,6.35 -4.87,9.6 -1.63,3.25 -3.25,6.45 -4.87,9.6l-23.53 45.86 -15.49 0zm32.99 -106.05c-4.01,0 -7.39,-0.72 -10.11,-2.15 -2.73,-1.43 -4.92,-3.2 -6.6,-5.3 -1.67,-2.1 -2.89,-4.39 -3.66,-6.88 -0.76,-2.48 -1.19,-4.78 -1.29,-6.88l12.34 0c0.09,1.05 0.36,2.13 0.79,3.23 0.43,1.1 1.05,2.12 1.87,3.08 0.81,0.95 1.77,1.74 2.87,2.36 1.1,0.62 2.37,0.93 3.8,0.93 1.53,0 2.87,-0.31 4.02,-0.93 1.15,-0.62 2.1,-1.41 2.87,-2.36 0.77,-0.96 1.34,-1.98 1.72,-3.08 0.38,-1.1 0.57,-2.17 0.57,-3.23l12.19 0c-0.19,2.1 -0.69,4.4 -1.5,6.88 -0.81,2.48 -2.03,4.77 -3.66,6.88 -1.62,2.1 -3.78,3.87 -6.45,5.3 -2.68,1.43 -5.93,2.15 -9.76,2.15z"/>
  <polygon id="26" class="fil2" points="809.79,454.34 753.99,454.34 753.99,354.6 770.49,354.6 770.49,439.15 798.31,439.15 798.31,354.6 814.66,354.6 814.66,439.29 823.84,439.29 823.84,474.98 809.79,474.98 "/>
  <polygon id="27" class="fil2" points="835.46,454.34 835.46,354.6 890.97,354.6 890.97,369.79 851.81,369.79 851.81,396.44 885.52,396.44 885.52,411.35 851.81,411.35 851.81,438.86 890.97,438.86 890.97,454.34 "/>
  <polygon id="28" class="fil2" points="947.77,454.34 947.77,411.2 919.65,411.2 919.65,454.34 903.16,454.34 903.16,354.6 919.65,354.6 919.65,396.44 947.77,396.44 947.77,354.6 964.12,354.6 964.12,454.34 "/>
  <polygon id="29" class="fil2" points="1012.02,369.5 1012.02,454.34 995.67,454.34 995.67,369.5 973.73,369.5 973.73,354.6 1034.11,354.6 1034.11,369.5 "/>
  <path id="30" class="fil2" d="M1104.68 385.41c0,4.3 -0.63,8.31 -1.87,12.04 -1.24,3.73 -3.08,6.97 -5.52,9.75 -2.44,2.77 -5.52,4.95 -9.25,6.52 -3.73,1.58 -8.08,2.37 -13.05,2.37l-14.63 0 0 38.26 -16.35 0 0 -99.74 30.12 0c4.69,0 8.89,0.62 12.62,1.87 3.73,1.24 6.93,3.13 9.61,5.66 2.67,2.53 4.73,5.73 6.16,9.6 1.43,3.87 2.16,8.43 2.16,13.69zm-16.21 -0.36c0,-4.94 -1.2,-8.72 -3.59,-11.34 -2.39,-2.6 -6.03,-3.92 -10.9,-3.92l-13.62 0 0 30.81 13.77 0c4.88,0 8.49,-1.41 10.83,-4.2 2.34,-2.82 3.51,-6.59 3.51,-11.34z"/>
 </g>
</svg>
